<svg id="レイヤー_1" data-name="レイヤー 1" xmlns="http://www.w3.org/2000/svg" viewBox="0 0 780.69 170.13"><defs><style>.cls-1{fill:#fff;}</style></defs><title>アートボード 12</title><path class="cls-1" d="M53,40.69A28.52,28.52,0,0,1,28.17,55.75,27.84,27.84,0,1,1,28.09.07c13.83,0,22.56,9.68,24.67,14.7h-6C40.83,6,31.3,4.95,28,4.95,15.43,4.95,5.39,16,5.39,28c0,12.59,11.06,22.85,22.71,22.85,2.69,0,11.5-.36,18.85-10.19Z"/><path class="cls-1" d="M57.86,15H63v5.75h.15c2.4-5.6,6.91-6.48,11.21-6.77v5.39a12.25,12.25,0,0,0-8.59,3.93A13,13,0,0,0,63,31.52V54.81H57.86Z"/><path class="cls-1" d="M93.09,53.5,77.59,15H83L95.64,46.73,109.18,15h5.39L91.49,68.78H86.18Z"/><path class="cls-1" d="M120.89,43c.15,7.57,5.31,8.15,7.13,8.15,4.8,0,7.42-2.84,7.42-7.13,0-5.46-4.95-6.7-7.93-7.93C123.44,34.72,117,32.53,117,25c0-5.6,4-11.06,11.35-11.06a10.65,10.65,0,0,1,10.85,10.84h-5.1c-.36-4.88-3.71-6.26-6-6.26a5.9,5.9,0,0,0-6,6c0,4.22,4.22,5.68,7.13,6.62,4.66,1.53,11.35,4.08,11.35,12.3.07,6.84-4.08,12.3-12.52,12.3-5.53,0-12.45-3.78-12.23-12.74Z"/><path class="cls-1" d="M151.68,19.58h-8.37V15h8.37V.95h5.09V15h9.54v4.59h-9.54V54.81h-5.09Z"/><path class="cls-1" d="M209.25,54.81h-5.1v-7H204c-4.37,6.55-11.35,7.93-15.5,7.93-12.52,0-21.4-9.53-21.4-21A20.89,20.89,0,0,1,188.51,14c4.29,0,11.28,1.38,15.5,8h.15V15h5.1Zm-20.74-3.64a16,16,0,0,0,15.94-16.23,16.12,16.12,0,0,0-15.94-16.38c-8.73,0-16.3,6.33-16.3,16.45A15.8,15.8,0,0,0,188.51,51.17Z"/><path class="cls-1" d="M217,.95h5.09V54.81H217Z"/><path class="cls-1" d="M232.08.95H247.8c6.62,0,13.17,1.6,17.54,4.44,9.46,5.9,12.23,16.16,12.23,22.64,0,5-2,15.79-12.23,22.34-4.37,2.84-10.92,4.44-17.54,4.44H232.08Zm5.39,49h7.79c4.88,0,12.3,0,18.49-4.37a22.69,22.69,0,0,0,8.44-17.76A22.2,22.2,0,0,0,263,10c-4.8-3.13-9.83-4.15-17.76-4.15h-7.79Z"/><path class="cls-1" d="M284.11.95h5.09v9.17h-5.09Zm0,14h5.09V54.81h-5.09Z"/><path class="cls-1" d="M300.78,43c.15,7.57,5.31,8.15,7.13,8.15,4.8,0,7.42-2.84,7.42-7.13,0-5.46-4.95-6.7-7.93-7.93-4.08-1.38-10.55-3.57-10.55-11.06,0-5.6,4-11.06,11.35-11.06a10.65,10.65,0,0,1,10.85,10.84H314c-.36-4.88-3.71-6.26-6-6.26a5.9,5.9,0,0,0-6,6c0,4.22,4.22,5.68,7.13,6.62,4.66,1.53,11.35,4.08,11.35,12.3.07,6.84-4.08,12.3-12.52,12.3-5.53,0-12.45-3.78-12.23-12.74Z"/><path class="cls-1" d="M327.27.95h5.1V39.3h.15L351.08,15h6.55L341.9,35.08l16.52,19.72h-6.55l-13.1-15.72-6.4,8.15v7.57h-5.1Z"/><path class="cls-1" d="M365.71.95h5.39V54.81h-5.39Z"/><path class="cls-1" d="M381.35,15h5.09v5.09h.15c1.53-2.4,5.46-6.11,12.23-6.11,4.88,0,9,1.24,12.59,4.88,3,2.91,4.95,7.5,4.95,14V54.81h-5.09V32.9c0-5.17-1.6-8.81-3.79-10.92a12.67,12.67,0,0,0-17.32,0c-2.18,2.11-3.79,5.75-3.71,10.92V54.81h-5.09Z"/><path class="cls-1" d="M427.13,19.58h-6.19V15h6.19c.15-5.53.58-14.85,15.29-15V4.73c-10.34,0-10.19,6.55-10.19,10.26h10.19v4.59H432.23V54.81h-5.1Z"/><path class="cls-1" d="M464.76,14a21.12,21.12,0,0,1,20.89,20.89A20.82,20.82,0,1,1,464.76,14Zm.07,37.19c7.72,0,15.72-6.11,15.72-16.52a15.73,15.73,0,1,0-31.44.44A16,16,0,0,0,464.84,51.17Z"/><path class="cls-1" d="M1.72,88.46H16.48v34.48h.22L41.58,88.46H58.93L28.87,127.67l30.06,40.51H41.58l-24.89-35h-.22v35H1.72Z"/><path class="cls-1" d="M113.23,108.39v59.8H100.09v-6h-.22c-2.37,3.23-6.25,8-15.41,8-10.88,0-17-5.39-20-9.48C60,154.29,60,144.59,60,139.63V108.39H74.34v30.49c0,4.85,0,18.1,12.5,18.1,9.05,0,12.07-8.51,12.07-18v-30.6Z"/><path class="cls-1" d="M123.9,108.39H137v5.28h.22c2.69-3.88,5.39-7.33,12.82-7.33h1.19v13.9c-13,.54-13,10.77-13,14.33v33.62H123.9Z"/><path class="cls-1" d="M169.15,144.7c.65,3.88,6.25,12.28,16.48,12.28,6.36,0,11.1-2.69,13.79-7.65h15.08a30.93,30.93,0,0,1-28.87,20.79c-18.21,0-31.57-14.22-31.57-31.68,0-16.92,12.5-32.11,31.46-32.11,19.61,0,30.92,16.05,30.92,31.14a33.1,33.1,0,0,1-.86,7.22Zm32.65-11.53c-1.62-9.59-8.51-13.68-16.16-13.68-5.82,0-14.22,2.59-16.92,13.68Z"/><path class="cls-1" d="M225.39,88.46h14.33V101.6H225.39Zm0,19.93h14.33v59.8H225.39Z"/><path class="cls-1" d="M272.36,88.46h14.76v34.48h.22l24.89-34.48h17.35l-30.06,39.22,30.06,40.51H312.23l-24.89-35h-.22v35H272.36Z"/><path class="cls-1" d="M343.69,144.7c.65,3.88,6.25,12.28,16.48,12.28,6.36,0,11.1-2.69,13.79-7.65H389a30.93,30.93,0,0,1-28.87,20.79c-18.21,0-31.57-14.22-31.57-31.68,0-16.92,12.5-32.11,31.46-32.11,19.61,0,30.92,16.05,30.92,31.14a33.1,33.1,0,0,1-.86,7.22Zm32.65-11.53c-1.62-9.59-8.51-13.68-16.16-13.68-5.82,0-14.22,2.59-16.92,13.68Z"/><path class="cls-1" d="M399.93,88.46h14.33V101.6H399.93Zm0,19.93h14.33v59.8H399.93Z"/><path class="cls-1" d="M446,88.46h42.88v13.79H460.81v19.5h26.94v13.79H460.81v18.85h28.12v13.79H446Z"/><path class="cls-1" d="M559.93,168.19H546.78v-7.33h-.22c-2.69,4.31-8.94,9.27-19.07,9.27-15.19,0-30.49-12.5-30.49-31.78,0-20.15,16.16-32,30.49-32,8.73,0,13.9,2.91,18.1,7.33V88.46h14.33ZM529,157c10.77,0,17.67-9.7,17.67-18.75,0-9.8-7.54-18.75-17.67-18.75-10.67,0-17.67,9.91-17.67,18.32C511.34,148.9,519.63,157,529,157Z"/><path class="cls-1" d="M572.32,88.46h14.33V101.6H572.32Zm0,19.93h14.33v59.8H572.32Z"/><path class="cls-1" d="M603.89,121.1h-7V108.39h7V88.46h14.33v19.93h8.62V121.1h-8.62v47.08H603.89Z"/><path class="cls-1" d="M634.81,88.46h14.33V101.6H634.81Zm0,19.93h14.33v59.8H634.81Z"/><path class="cls-1" d="M657.65,138.34a32,32,0,0,1,31.89-32,31.61,31.61,0,0,1,31.68,31.78c0,19.61-15.08,32-31.68,32A32,32,0,0,1,657.65,138.34Zm49.24.11c0-10.88-8.4-19-17.35-19-7.43,0-17.56,6.36-17.56,18.85,0,11.31,8.51,18.64,17.56,18.64C700,157,706.89,147.93,706.89,138.45Z"/><path class="cls-1" d="M727.57,108.39h13.25v5.17c2.37-2.26,7.33-7.22,16.38-7.22,5.17,0,13,2.26,18,8.3,5.5,6.57,5.5,16.59,5.5,21.23v32.32H766.36V138.66c0-5,0-19.18-12.07-19.18a12.26,12.26,0,0,0-9.8,5.28c-2.59,3.66-2.59,9.91-2.59,15v28.44H727.57Z"/></svg>